<svg width="132" height="35" viewBox="0 0 132 35" fill="none" xmlns="http://www.w3.org/2000/svg">
<g clip-path="url(#clip0_2336_689)">
<path d="M0 24.5719L8.74625 24.3341C8.9126 25.9054 9.13375 28.4301 11.7367 28.4301C13.3983 28.4301 13.8954 27.2389 13.8954 26.0497C13.8954 24.4784 12.4001 23.3827 10.0751 21.6203L6.80872 19.1444C2.87888 16.1421 0.553857 13.2861 0.553857 9.28563C0.553857 4.38061 4.3193 0 11.9578 0C17.2165 0 22.3657 2.33359 22.6984 10.3813L14.4492 10.6191C14.2281 8.61889 13.8406 6.47636 11.5155 6.47636C9.91072 6.47636 9.3001 7.71431 9.3001 8.66763C9.3001 10.2857 11.6799 11.8571 13.4531 13.1906L16.6646 15.6197C20.8156 18.8091 23.1426 21.7627 23.1426 25.7144C23.1426 30.8085 18.7685 35 11.6271 35C4.48566 35 0.332706 30.904 0 24.5719Z" fill="#231F20"/>
<path d="M26.5322 0.524414H47.5025V7.38093H34.7207V34.4756H26.5322V0.524414Z" fill="#231F20"/>
<path d="M55.9199 0.524414H68.9248C74.6278 0.524414 78.5576 3.00032 78.5576 9.28562C78.5576 14.1419 76.2874 16.38 73.4085 17.2378V17.4288C76.5085 18.2379 78.7788 20.5715 78.7788 24.8566C78.7788 31.2374 74.8489 34.4756 69.2556 34.4756H55.918V0.524414H55.9199ZM66.545 14.021C68.4277 14.021 69.2027 12.9527 69.2027 10.3813C69.2027 8.04767 68.3181 7.00077 66.8229 7.00077H64.1104V14.021H66.5469H66.545ZM66.7661 27.9037C68.4277 27.9037 69.2575 26.6501 69.2575 24.4589C69.2575 21.9829 68.3729 20.9341 66.6546 20.9341H64.1084V27.9017H66.7661V27.9037Z" fill="#231F20"/>
<path d="M123.639 0.524414V15.762H123.475L116.055 0.524414H106.532V34.4756H114.893V16.9999H115.059L123.584 34.4756H132V0.524414H123.639Z" fill="#231F20"/>
<path d="M90.4803 27.6035V7.36338H103.019V0.524414H82.3682V34.4756H103.074V27.6035H90.4803Z" fill="#231F20"/>
<path d="M99.6414 14.0347H92.7446V20.9048H99.6414V14.0347Z" fill="#8A54ED"/>
<path d="M43.9974 14.0347H37.1006V20.9048H43.9974V14.0347Z" fill="#8A54ED"/>
</g>
<defs>
<clipPath id="clip0_2336_689">
<rect width="132" height="35" fill="white"/>
</clipPath>
</defs>
</svg>
